<?xml version="1.0" standalone="no"?><!DOCTYPE svg PUBLIC "-//W3C//DTD SVG 1.1//EN"
        "http://www.w3.org/Graphics/SVG/1.1/DTD/svg11.dtd">
<svg t="1745476009017" class="icon" viewBox="0 0 1024 1024" version="1.1" xmlns="http://www.w3.org/2000/svg" p-id="804"
     width="16" height="16">
    <path d="M81.2 113.2L8 117.2V472h312v448H706.8l2.4-36.8c1.6-20.4 2.8-121.2 2.8-224.4 0-203.2 0-201.6-22.4-224.4-6.4-6.4-24-20-39.6-30.4-34.8-23.6-49.2-38.4-54-56.4-5.2-17.6-5.2-58.4 0-61.6 2.4-1.2 4-5.2 4-8.4 0-4.4-7.2-5.6-33.6-5.6-61.2 0-103.2-20.4-170.4-82.8-84.8-78.4-117.6-86.4-314.8-76z"
          p-id="805" fill="#2C4296"></path>
    <path d="M300 111.6c0 1.6 11.2 7.6 25.2 12.4 13.6 4.8 46.4 19.6 72.8 32 98.4 47.6 205.2 84.8 270 94l18.4 2.8-1.6 25.2c-2 32.8 5.6 48.8 36.4 75.2 54.4 46.8 62.8 60 62.8 100v18.8l115.2-0.8 114.8-1.2 1.2-36.8c1.2-42.4-1.2-48.8-28.4-78-12-13.2-29.2-24.4-54-36.8-53.2-25.6-64-33.2-73.6-51.6-6.4-13.2-7.6-21.2-6-40.4 0.8-13.6 2.4-27.2 3.2-30.4 1.2-5.2-5.6-6-42.4-6.4-62.8-0.4-108.8-16-169.2-57.2-12.8-8.4-30.4-17.6-38.8-20-19.2-5.2-306-6-306-0.8z"
          p-id="806" fill="#2C4296"></path>
</svg>